<?xml version="1.0" encoding="UTF-8" standalone="no"?>
<!-- Created with Inkscape (http://www.inkscape.org/) -->

<svg
   width="64"
   height="64"
   viewBox="0 0 16.933333 16.933333"
   version="1.1"
   id="svg1"
   inkscape:version="1.3.2 (091e20e, 2023-11-25, custom)"
   sodipodi:docname="stopwatch.svg"
   xmlns:inkscape="http://www.inkscape.org/namespaces/inkscape"
   xmlns:sodipodi="http://sodipodi.sourceforge.net/DTD/sodipodi-0.dtd"
   xmlns="http://www.w3.org/2000/svg"
   xmlns:svg="http://www.w3.org/2000/svg">
  <defs
     id="defs1" />
  <g
     fill="currentColor"
     id="layer1">
    <path
       id="circle5"
       inkscape:label="circleouter"
       d="m 6.8791665,1.5875 v 0.5291666 c 0,0.1256363 0.098414,0.2645834 0.2645834,0.2645834 H 7.9374998 V 2.6835571 C 4.9454397,2.9566853 2.6528646,5.4621743 2.6458333,8.4666665 2.6458331,11.681424 5.251909,14.2875 8.4666665,14.2875 11.681424,14.2875 14.2875,11.681424 14.2875,8.4666665 14.287137,5.4572187 11.992819,2.944224 8.9958332,2.670638 V 2.38125 h 0.7937499 c 0.1664244,0 0.2645829,-0.1218003 0.2645829,-0.2645834 V 1.5875 c 0,-0.1543353 -0.1130299,-0.2645834 -0.2645829,-0.2645834 H 7.1437499 c -0.1338826,0 -0.2645834,0.1276465 -0.2645834,0.2645834 z m 1.8520833,2.1239013 c 0.6559072,0.037123 1.2970412,0.209546 1.8830892,0.506429 l -0.392224,0.6790283 c -0.06678,0.1156614 -0.01653,0.2964011 0.09663,0.361735 0.115662,0.066777 0.293618,0.019925 0.361218,-0.097152 l 0.392224,-0.6790284 c 0.549451,0.3593284 1.018676,0.8283772 1.378211,1.3776937 L 11.771369,6.252331 c -0.11567,0.066775 -0.161965,0.2485733 -0.09663,0.361735 0.06678,0.1156619 0.244137,0.1642269 0.361219,0.096635 l 0.679028,-0.3922241 c 0.296856,0.5855361 0.469451,1.2261226 0.506946,1.8815388 h -1.845366 c -0.133554,0 -0.264583,0.1339155 -0.264583,0.2645833 0,0.1335543 0.129394,0.2645834 0.264583,0.2645834 h 1.83193 c -0.03247,0.6552208 -0.199957,1.2966686 -0.49196,1.8841226 l -0.679545,-0.392224 c -0.115665,-0.06678 -0.296395,-0.01652 -0.361735,0.09664 -0.06678,0.115662 -0.01993,0.293619 0.09715,0.361219 l 0.670243,0.387056 c -0.358665,0.547781 -0.82643,1.015722 -1.374076,1.374593 l -0.387057,-0.669726 c -0.06678,-0.11567 -0.24857,-0.162482 -0.361735,-0.09715 -0.11567,0.06678 -0.164225,0.244136 -0.09663,0.361218 l 0.392741,0.680579 c -0.587061,0.292224 -1.2281457,0.46006 -1.8830889,0.492993 v -1.833997 c 0,-0.133555 -0.1339154,-0.264583 -0.2645833,-0.264583 -0.1335543,0 -0.2645833,0.129394 -0.2645833,0.264583 v 1.833997 C 7.5484125,13.176027 6.9069653,13.00854 6.3195108,12.716536 l 0.3932576,-0.680578 c 0.066785,-0.115666 0.016525,-0.296395 -0.096635,-0.361735 -0.1156638,-0.06678 -0.2941341,-0.01992 -0.361735,0.09715 L 5.867342,12.442134 C 5.3193223,12.083374 4.8511982,11.615426 4.4922322,11.067541 l 0.67076,-0.387056 C 5.2786631,10.613707 5.3254729,10.431916 5.2601439,10.31875 5.1933681,10.20308 5.015491,10.154525 4.8984089,10.222115 L 4.2173136,10.615373 C 3.9250624,10.027799 3.7573971,9.386167 3.7248372,8.7307331 h 1.8334797 c 0.1335539,0 0.2645834,-0.1339155 0.2645834,-0.2645834 0,-0.1335542 -0.1293945,-0.2645833 -0.2645834,-0.2645833 H 3.7248372 C 3.7576087,7.5466601 3.9252685,6.9055769 4.2173136,6.3184773 L 4.8978922,6.7117349 C 5.013559,6.7785199 5.1937705,6.7282594 5.2591104,6.6151 5.3258953,6.4994354 5.2795511,6.3214826 5.1624755,6.2538817 L 4.4917154,5.8663085 C 4.850531,5.3184755 5.3184755,4.850531 5.8663085,4.4917154 L 6.2533649,5.1624755 C 6.3201429,5.2781464 6.5014174,5.3244393 6.6145832,5.2591104 6.7302531,5.1923344 6.7793248,5.014974 6.7117349,4.8978922 L 6.3184773,4.2173136 C 6.9057349,3.9251999 7.5470011,3.7575382 8.2020832,3.7248372 v 1.8314127 c 0,0.1335543 0.1339154,0.2645833 0.2645833,0.2645833 0.1335543,0 0.2645833,-0.1293944 0.2645833,-0.2645833 z"
       sodipodi:nodetypes="ccccccsccccccccccccsccccccccsssccccccccscccssscccsccccscccssscccsccccscccsssc" />
  </g>
</svg>
